<svg id="Layer_1" data-name="Layer 1" xmlns="http://www.w3.org/2000/svg" viewBox="0 0 700 700"><defs><style>.cls-1,.cls-2,.cls-3,.cls-4{fill:#454f59;}.cls-1{opacity:0.2;}.cls-2{opacity:0.25;}.cls-3{opacity:0.3;}.cls-4{opacity:0.65;}</style></defs><path class="cls-1" d="M644.36,475.64C663,457,678,423.49,687.75,381.45c7.87-34.1,12.25-73.82,12.25-115.81a542.5,542.5,0,0,0-8.5-97.7c-9.33-50.5-25.87-91-47.14-112.3C626,37.28,593.31,22.45,552.24,12.74,517.68,4.56,477.21,0,434.36,0c-40.49,0-78.87,4.07-112.13,11.42-43.76,9.67-78.66,25-97.86,44.22-21.28,21.27-37.81,61.8-47.15,112.3a542.5,542.5,0,0,0-8.5,97.7c0,42,4.38,81.71,12.26,115.8,9.7,42,24.72,75.53,43.39,94.2,19.2,19.2,54.1,34.54,97.86,44.21,33.26,7.35,71.64,11.43,112.13,11.43,42.85,0,83.32-4.56,117.87-12.74C593.3,508.82,626,494,644.36,475.64Z"/><path class="cls-1" d="M168.72,265.64c0,42,4.38,81.71,12.26,115.8,9.7,42,24.72,75.53,43.39,94.2,19.2,19.2,54.1,34.54,97.86,44.21,33.26,7.35,71.64,11.43,112.13,11.43,42.61,0,82.86-4.52,117.29-12.61a261.24,261.24,0,0,0,77.4-185.94C629.05,188,511.7,70.63,367,70.63a261.29,261.29,0,0,0-185.42,76.85q-2.35,9.92-4.31,20.46A542.5,542.5,0,0,0,168.72,265.64Z"/><path class="cls-2" d="M282.63,167.46a261.12,261.12,0,0,0-109.1,23.73,564.82,564.82,0,0,0-4.81,74.45c0,42,4.38,81.71,12.26,115.8,9.7,42,24.72,75.53,43.39,94.2,19.2,19.2,54.1,34.54,97.86,44.21,33.26,7.35,71.64,11.43,112.13,11.43a547.06,547.06,0,0,0,93-7.67,261.39,261.39,0,0,0,17.4-94.05C544.73,284.81,427.39,167.46,282.63,167.46Z"/><path class="cls-3" d="M180.57,257c-3.95,0-7.88.1-11.78.27,0,2.78-.07,5.56-.07,8.36,0,42,4.38,81.71,12.26,115.8,9.7,42,24.72,75.53,43.39,94.2,19.2,19.2,54.1,34.54,97.86,44.21,33.26,7.35,71.64,11.43,112.13,11.43,2.68,0,5.36,0,8-.06.18-4,.29-8.05.29-12.11C442.67,374.35,325.32,257,180.57,257Z"/><path class="cls-4" d="M268.91,578.17c-45.3-10-81.43-25.89-101.31-45.77-19.32-19.32-34.87-54-44.91-97.51-7.76-33.58-12.23-72.43-12.65-113.55A200,200,0,0,0,0,500C0,610.46,89.54,700,200,700A200,200,0,0,0,378.66,590C339.08,589.56,301.6,585.4,268.91,578.17Z"/></svg>